<svg width="264" height="73" viewBox="0 0 264 73" fill="none" xmlns="http://www.w3.org/2000/svg">
<g clip-path="url(#clip0)">
<path d="M160.571 34.5447C159.752 34.5443 158.964 34.4261 158.366 34.2142C157.769 34.0023 157.407 33.7124 157.353 33.4033L156.874 30.6362C156.818 30.313 157.104 29.9947 157.669 29.7512C158.233 29.5076 159.031 29.3589 159.885 29.3378L217.212 27.918C219.036 27.8734 220.832 28.1044 222.206 28.5605C223.58 29.0165 224.419 29.6601 224.538 30.35C224.658 31.0398 224.048 31.7193 222.843 32.2392C221.638 32.759 219.937 33.0767 218.113 33.1224L160.787 34.5421C160.715 34.5438 160.643 34.5447 160.571 34.5447Z" fill="#6C63FF"/>
<path d="M171.875 34.9015C171.04 34.901 170.238 34.7783 169.636 34.5591C169.035 34.34 168.681 34.0414 168.649 33.7258L168.241 29.5928C168.225 29.4325 168.293 29.2727 168.44 29.1223C168.588 28.972 168.812 28.8341 169.101 28.7165C169.389 28.599 169.736 28.5041 170.121 28.4372C170.507 28.3704 170.923 28.3329 171.347 28.3269L218.488 27.6606C219.344 27.6485 220.178 27.7655 220.805 27.9858C221.433 28.2061 221.804 28.5117 221.836 28.8354L222.244 32.9684C222.26 33.1287 222.193 33.2885 222.045 33.4389C221.897 33.5892 221.673 33.7271 221.385 33.8447C221.096 33.9622 220.749 34.0571 220.364 34.124C219.978 34.1908 219.562 34.2283 219.138 34.2343L171.997 34.9006C171.956 34.9012 171.915 34.9015 171.875 34.9015Z" fill="#2F2E41"/>
<path d="M227.117 73H219.784C218.927 72.9996 218.107 72.8709 217.501 72.6419C216.896 72.413 216.555 72.1026 216.554 71.7788V48.6669C216.555 48.3431 216.896 48.0327 217.501 47.8037C218.107 47.5748 218.927 47.446 219.784 47.4456H227.117C227.973 47.446 228.794 47.5748 229.399 47.8037C230.004 48.0327 230.345 48.3431 230.346 48.6669V71.7788C230.345 72.1026 230.004 72.413 229.399 72.6419C228.794 72.8709 227.973 72.9996 227.117 73V73Z" fill="#2F2E41"/>
<path d="M208.706 73H201.373C200.516 72.9996 199.696 72.8709 199.09 72.6419C198.485 72.413 198.144 72.1026 198.143 71.7788V48.6669C198.144 48.3431 198.485 48.0327 199.09 47.8037C199.696 47.5748 200.516 47.446 201.373 47.4456H208.706C209.562 47.446 210.383 47.5748 210.988 47.8037C211.593 48.0327 211.934 48.3431 211.935 48.6669V71.7788C211.934 72.1026 211.593 72.413 210.988 72.6419C210.383 72.8709 209.562 72.9996 208.706 73V73Z" fill="#2F2E41"/>
<path d="M215.979 23.3258C229.973 23.3258 241.317 19.0359 241.317 13.7439C241.317 8.452 229.973 4.16204 215.979 4.16204C201.986 4.16204 190.642 8.452 190.642 13.7439C190.642 19.0359 201.986 23.3258 215.979 23.3258Z" fill="#6C63FF"/>
<path d="M202.264 17.0155C201.449 16.9143 200.701 16.7482 200.07 16.5284C199.652 16.3715 199.329 16.1819 199.125 15.973C198.921 15.764 198.841 15.5407 198.889 15.3187C198.915 15.1605 199.038 15.0068 199.248 14.8695C199.457 14.7323 199.748 14.6152 200.097 14.5275C201.003 14.3077 202.215 14.307 203.449 14.5127L203.402 10.772L204.396 10.7702L204.451 15.1678L203.685 14.9856C202.798 14.7748 201.53 14.6264 200.634 14.8438C200.412 14.9012 200.229 14.9772 200.098 15.0658C199.967 15.1544 199.892 15.2532 199.878 15.3546C199.844 15.52 199.906 15.6862 200.057 15.8418C200.209 15.9975 200.447 16.1389 200.756 16.2566C201.853 16.653 203.454 16.7769 205.28 16.8877L205.122 17.2586C204.152 17.21 203.196 17.1287 202.264 17.0155V17.0155Z" fill="#2F2E41"/>
<path d="M193.16 10.5834L193.03 10.9559L198.336 11.2209L198.466 10.8484L193.16 10.5834Z" fill="#2F2E41"/>
<path d="M209.906 11.4192L209.776 11.7917L215.082 12.0566L215.212 11.6842L209.906 11.4192Z" fill="#2F2E41"/>
<path d="M194.41 54.8678H194.41C193.291 54.8673 192.217 54.6989 191.425 54.3995C190.634 54.1001 190.189 53.6942 190.187 53.2708C190.187 53.2708 196.92 39.457 200.767 31.3606C201.515 29.7862 203.702 28.3613 206.946 27.335C210.191 26.3088 214.286 25.7465 218.516 25.7464H218.516C224.574 25.7464 230.385 26.6565 234.669 28.2766C238.953 29.8967 241.359 32.094 241.359 34.3851V37.1132C241.359 41.822 236.413 46.338 227.608 49.6676C218.804 52.9972 206.862 54.8678 194.41 54.8678V54.8678Z" fill="#2F2E41"/>
<path d="M226.378 53.485C226.118 53.6993 225.7 53.8806 225.174 54.0072C224.648 54.1338 224.036 54.2002 223.413 54.1984L216.08 54.1743C215.656 54.1729 215.237 54.1399 214.847 54.0773C214.456 54.0146 214.102 53.9235 213.805 53.8091C213.508 53.6948 213.273 53.5594 213.114 53.4107C212.955 53.262 212.875 53.1029 212.879 52.9425L213.377 31.2179C213.385 30.8754 213.57 30.5367 213.924 30.2213C214.277 29.9059 214.792 29.6199 215.438 29.3797C216.084 29.1396 216.848 28.9498 217.688 28.8215C218.528 28.6931 219.426 28.6285 220.332 28.6315C221.238 28.6344 222.134 28.7049 222.967 28.8388C223.801 28.9726 224.557 29.1673 225.192 29.4117C225.827 29.6561 226.328 29.9454 226.667 30.2631C227.006 30.5808 227.176 30.9206 227.168 31.2631L226.67 52.9877C226.667 53.1594 226.567 53.3289 226.378 53.485Z" fill="#6C63FF"/>
<path d="M229.617 47.6854C229.357 47.8998 228.939 48.0811 228.413 48.2077C227.887 48.3342 227.276 48.4006 226.652 48.3988L214.128 48.3577C213.271 48.3545 212.454 48.2231 211.854 47.9921C211.253 47.7612 210.92 47.4497 210.927 47.1259L211.336 29.2869C211.339 29.1266 211.426 28.968 211.592 28.8204C211.758 28.6728 211.999 28.5389 212.301 28.4265C212.604 28.3141 212.962 28.2253 213.355 28.1652C213.748 28.1051 214.169 28.0749 214.593 28.0763L227.117 28.1174C227.541 28.1188 227.96 28.1517 228.351 28.2144C228.741 28.277 229.095 28.3682 229.392 28.4825C229.689 28.5969 229.924 28.7323 230.083 28.881C230.242 29.0297 230.322 29.1888 230.318 29.3492L229.909 47.1882C229.906 47.3599 229.806 47.5294 229.617 47.6854V47.6854Z" fill="#2F2E41"/>
<path d="M208.666 8.09773C204.717 8.35117 200.309 8.64096 196.546 7.94854C193.585 7.40353 191.549 6.31501 192.27 5.03604C193.706 2.49072 201.411 1.3654 207.604 1.5925C211.246 1.72108 214.67 2.305 217.336 3.25196C217.463 3.29727 217.621 3.32776 217.792 3.33975C217.963 3.35174 218.14 3.34471 218.301 3.31951C218.462 3.29431 218.6 3.25201 218.699 3.19775C218.797 3.14348 218.852 3.07957 218.857 3.01374C218.831 2.0745 220.689 1.29075 222.89 0.936954C225.647 0.493985 228.85 0.652282 231.683 0.889331C239.435 1.5431 246.475 3.07534 251.864 5.28158C257.253 7.48783 260.734 10.2631 261.844 13.2371C262.633 15.3308 262.21 17.4643 260.604 19.49C259.101 21.3573 256.325 23.2341 251.755 24.2501C247.637 25.1656 241.648 25.4013 237.848 24.1169C234.804 23.0881 233.432 21.1648 235.929 19.8338C236.665 19.4478 237.663 19.1444 238.818 18.9555C239.973 18.7667 241.242 18.6996 242.489 18.7613C243.669 18.8318 244.771 19.0289 245.664 19.3291C246.556 19.6293 247.202 20.0201 247.525 20.455C247.762 20.8726 247.689 21.3069 247.314 21.7098C246.939 22.1127 246.276 22.4685 245.4 22.7378C244.744 22.9159 244 23.0416 243.212 23.1074C242.424 23.1732 241.609 23.1776 240.816 23.1204C240.024 23.0631 239.27 22.9455 238.602 22.7746C237.933 22.6036 237.364 22.383 236.928 22.1262C236.323 21.759 234.78 22.0969 235.389 22.4663C236.088 22.8798 237.046 23.2217 238.178 23.4618C239.31 23.7019 240.581 23.8328 241.878 23.8428C243.172 23.8517 244.448 23.7305 245.576 23.4914C246.705 23.2524 247.645 22.9043 248.301 22.4826C249.004 22.0523 249.395 21.5596 249.435 21.054C249.474 20.5484 249.161 20.0478 248.526 19.6026C247.832 19.1485 246.844 18.7688 245.654 18.4993C244.464 18.2299 243.112 18.0796 241.726 18.0627C240.288 18.0584 238.869 18.1865 237.591 18.4358C236.313 18.6851 235.215 19.0482 234.391 19.4938C233.057 20.2648 232.565 21.2011 233.018 22.1064C233.42 23.027 234.598 23.8738 236.378 24.5202C238.437 25.2253 241.089 25.6331 243.865 25.6719C249.906 25.8021 255.299 24.486 258.631 22.6565C262.088 20.7582 263.635 18.3761 263.946 16.0986C264.263 13.7774 263.192 11.459 260.812 9.31595C258.432 7.17293 254.805 5.26049 250.2 3.72099C245.82 2.27135 240.684 1.18603 235.124 0.535405C229.62 -0.102187 221.935 -0.566942 218.218 1.55976C217.462 1.99041 217.064 2.49681 217.075 3.01375L218.596 2.77553C213.218 0.832186 204.765 0.341129 198.05 1.53569C194.677 2.13567 191.753 3.25135 190.705 4.62696C189.617 6.05428 191.19 7.45518 194.416 8.26467C198.806 9.36632 204.251 9.06126 209.14 8.74747C210.268 8.67506 209.789 8.02565 208.666 8.09775V8.09773Z" fill="#2F2E41"/>
<path d="M152.951 49.5134H8.6763C6.37601 49.5124 4.17068 49.1663 2.54412 48.5512C0.91757 47.9361 0.00262441 47.1021 0 46.2323V13.6088C0.00262441 12.7389 0.91757 11.9049 2.54412 11.2898C4.17068 10.6747 6.37601 10.3287 8.6763 10.3277H152.951C155.251 10.3287 157.456 10.6747 159.083 11.2898C160.709 11.9049 161.624 12.7389 161.627 13.6088V46.2323C161.624 47.1021 160.709 47.9361 159.083 48.5512C157.456 49.1663 155.251 49.5124 152.951 49.5134ZM8.6763 10.8902C6.77035 10.891 4.94309 11.1777 3.59537 11.6873C2.24766 12.197 1.48956 12.888 1.48737 13.6088V46.2323C1.48956 46.953 2.24766 47.644 3.59537 48.1537C4.94309 48.6634 6.77035 48.9501 8.6763 48.9509H152.951C154.857 48.9501 156.684 48.6634 158.032 48.1537C159.379 47.644 160.137 46.953 160.14 46.2323V13.6088C160.137 12.888 159.379 12.197 158.032 11.6873C156.684 11.1777 154.857 10.891 152.951 10.8902H8.6763Z" fill="#3F3D56"/>
<path d="M28.0121 18.0148C26.7863 18.0148 25.5881 17.8774 24.569 17.6199C23.5498 17.3623 22.7555 16.9963 22.2865 16.5681C21.8174 16.1398 21.6947 15.6686 21.9338 15.214C22.1729 14.7593 22.7632 14.3418 23.6299 14.014C24.4966 13.6862 25.6008 13.463 26.803 13.3726C28.0052 13.2822 29.2513 13.3286 30.3837 13.506C31.5161 13.6833 32.484 13.9837 33.165 14.3691C33.8459 14.7545 34.2094 15.2077 34.2094 15.6712C34.2076 16.2925 33.554 16.8883 32.3922 17.3276C31.2304 17.767 29.6551 18.0141 28.0121 18.0148V18.0148ZM28.0121 13.89C27.0805 13.89 26.1699 13.9945 25.3953 14.1902C24.6208 14.3859 24.0171 14.6641 23.6606 14.9896C23.3041 15.315 23.2108 15.6732 23.3926 16.0187C23.5743 16.3642 24.0229 16.6816 24.6816 16.9307C25.3403 17.1798 26.1795 17.3494 27.0932 17.4181C28.0068 17.4869 28.9539 17.4516 29.8145 17.3168C30.6751 17.182 31.4107 16.9537 31.9283 16.6608C32.4458 16.3678 32.722 16.0235 32.722 15.6712C32.7206 15.199 32.2239 14.7462 31.341 14.4123C30.458 14.0784 29.2608 13.8906 28.0121 13.89Z" fill="#3F3D56"/>
<path d="M132.623 18.0148C131.398 18.0148 130.199 17.8774 129.18 17.6199C128.161 17.3623 127.367 16.9963 126.898 16.5681C126.429 16.1398 126.306 15.6686 126.545 15.214C126.784 14.7593 127.374 14.3418 128.241 14.014C129.108 13.6862 130.212 13.463 131.414 13.3726C132.617 13.2822 133.863 13.3286 134.995 13.506C136.127 13.6833 137.095 13.9837 137.776 14.3691C138.457 14.7545 138.821 15.2077 138.821 15.6712C138.819 16.2925 138.165 16.8883 137.004 17.3276C135.842 17.767 134.266 18.0141 132.623 18.0148V18.0148ZM132.623 13.89C131.692 13.89 130.781 13.9945 130.007 14.1902C129.232 14.3859 128.628 14.6641 128.272 14.9896C127.915 15.315 127.822 15.6732 128.004 16.0187C128.186 16.3642 128.634 16.6816 129.293 16.9307C129.952 17.1798 130.791 17.3494 131.705 17.4181C132.618 17.4869 133.565 17.4516 134.426 17.3168C135.286 17.182 136.022 16.9537 136.54 16.6608C137.057 16.3678 137.333 16.0235 137.333 15.6712C137.332 15.199 136.835 14.7462 135.952 14.4123C135.069 14.0784 133.872 13.8906 132.623 13.89V13.89Z" fill="#3F3D56"/>
<path d="M42.6378 32.2642H15.8652C14.748 32.2637 13.6768 32.0956 12.8868 31.7968C12.0968 31.4981 11.6524 31.093 11.651 30.6705V24.6708C11.6524 24.2483 12.0968 23.8432 12.8868 23.5444C13.6768 23.2457 14.748 23.0776 15.8652 23.0771H42.6378C43.7551 23.0776 44.8262 23.2457 45.6162 23.5444C46.4063 23.8432 46.8507 24.2483 46.852 24.6708V30.6705C46.8507 31.093 46.4063 31.4981 45.6162 31.7968C44.8262 32.0956 43.7551 32.2637 42.6378 32.2642V32.2642Z" fill="#E6E6E6"/>
<path d="M94.1998 32.2642H67.4272C66.31 32.2637 65.2388 32.0956 64.4488 31.7968C63.6588 31.4981 63.2144 31.093 63.213 30.6705V24.6708C63.2144 24.2483 63.6588 23.8432 64.4488 23.5444C65.2388 23.2457 66.31 23.0776 67.4272 23.0771H94.1998C95.3171 23.0776 96.3882 23.2457 97.1782 23.5444C97.9683 23.8432 98.4127 24.2483 98.414 24.6708V30.6705C98.4127 31.093 97.9683 31.4981 97.1782 31.7968C96.3882 32.0956 95.3171 32.2637 94.1998 32.2642V32.2642Z" fill="#E6E6E6"/>
<path d="M118.989 23.2646C118.003 23.265 117.058 23.4133 116.361 23.6769C115.664 23.9405 115.272 24.298 115.271 24.6708V30.6705C115.272 31.0433 115.664 31.4007 116.361 31.6644C117.058 31.928 118.003 32.0763 118.989 32.0767H145.762C146.748 32.0763 147.693 31.928 148.39 31.6644C149.087 31.4007 149.479 31.0433 149.48 30.6705V24.6708C149.479 24.298 149.087 23.9405 148.39 23.6769C147.693 23.4133 146.748 23.265 145.762 23.2646H118.989Z" fill="#E6E6E6"/>
<path d="M42.8857 44.2636H16.1131C14.9959 44.2631 13.9247 44.095 13.1347 43.7963C12.3447 43.4975 11.9003 43.0924 11.8989 42.6699V36.6702C11.9003 36.2477 12.3447 35.8426 13.1347 35.5439C13.9247 35.2451 14.9959 35.077 16.1131 35.0765H42.8857C44.003 35.077 45.0741 35.2451 45.8641 35.5439C46.6542 35.8426 47.0986 36.2477 47.0999 36.6702V42.6699C47.0986 43.0924 46.6542 43.4975 45.8641 43.7963C45.0741 44.095 44.003 44.2631 42.8857 44.2636V44.2636Z" fill="#E6E6E6"/>
<path d="M94.4477 44.2636H67.6751C66.5578 44.2631 65.4867 44.095 64.6967 43.7963C63.9067 43.4975 63.4622 43.0924 63.4609 42.6699V36.6702C63.4622 36.2477 63.9067 35.8426 64.6967 35.5439C65.4867 35.2451 66.5578 35.077 67.6751 35.0765H94.4477C95.565 35.077 96.6361 35.2451 97.4261 35.5439C98.2161 35.8426 98.6606 36.2477 98.6619 36.6702V42.6699C98.6606 43.0924 98.2161 43.4975 97.4261 43.7963C96.6361 44.095 95.565 44.2631 94.4477 44.2636V44.2636Z" fill="#E6E6E6"/>
<path d="M146.01 44.2636H119.237C118.12 44.2631 117.049 44.095 116.259 43.7963C115.469 43.4975 115.024 43.0924 115.023 42.6699V36.6702C115.024 36.2477 115.469 35.8426 116.259 35.5439C117.049 35.2451 118.12 35.077 119.237 35.0765H146.01C147.127 35.077 148.198 35.2451 148.988 35.5439C149.778 35.8426 150.223 36.2477 150.224 36.6702V42.6699C150.223 43.0924 149.778 43.4975 148.988 43.7963C148.198 44.095 147.127 44.2631 146.01 44.2636V44.2636Z" fill="#E6E6E6"/>
<path d="M28.012 16.3274C27.552 16.3272 27.111 16.258 26.7856 16.135C26.4603 16.012 26.2773 15.8452 26.2768 15.6712V6.29664C26.2768 6.1226 26.4596 5.95568 26.785 5.83262C27.1105 5.70955 27.5518 5.64042 28.012 5.64042C28.4723 5.64042 28.9136 5.70955 29.2391 5.83262C29.5645 5.95568 29.7473 6.1226 29.7473 6.29664V15.6712C29.7467 15.8452 29.5637 16.012 29.2384 16.135C28.9131 16.258 28.4721 16.3272 28.012 16.3274V16.3274Z" fill="#3F3D56"/>
<path d="M132.623 16.3274C132.163 16.3272 131.722 16.258 131.397 16.135C131.072 16.012 130.889 15.8452 130.888 15.6712V6.29664C130.888 6.1226 131.071 5.95568 131.396 5.83262C131.722 5.70955 132.163 5.64042 132.623 5.64042C133.084 5.64042 133.525 5.70955 133.85 5.83262C134.176 5.95568 134.359 6.1226 134.359 6.29664V15.6712C134.358 15.8452 134.175 16.012 133.85 16.135C133.524 16.258 133.083 16.3272 132.623 16.3274V16.3274Z" fill="#3F3D56"/>
<path d="M28.2394 30.1026C27.5095 30.1031 26.7989 30.0138 26.2149 29.8482L26.1787 29.8379L18.5531 27.6319C17.8398 27.4251 17.373 27.1197 17.2553 26.7827C17.1376 26.4458 17.3787 26.1049 17.9255 25.8352C18.4724 25.5655 19.2801 25.3889 20.1711 25.3444C21.0621 25.2999 21.9634 25.3911 22.6767 25.5979L27.6159 27.0302L39.2876 21.2719C39.5582 21.1384 39.8957 21.0263 40.2809 20.9422C40.666 20.858 41.0912 20.8033 41.5322 20.7813C41.9732 20.7593 42.4214 20.7703 42.8511 20.8138C43.2808 20.8572 43.6837 20.9323 44.0367 21.0346L44.0377 21.0349L43.9653 21.073L44.0397 21.0349C44.7519 21.2419 45.2179 21.5473 45.3353 21.8841C45.4528 22.2209 45.2122 22.5615 44.6662 22.8313L30.9378 29.6013C30.6202 29.7573 30.2118 29.8836 29.7444 29.9702C29.277 30.0569 28.763 30.1017 28.2424 30.1011L28.2394 30.1026Z" fill="#6C63FF"/>
<path d="M81.2888 41.9145C80.5588 41.915 79.8483 41.8257 79.2642 41.6601L79.2281 41.6498L71.6025 39.4439C70.8892 39.2371 70.4224 38.9316 70.3047 38.5946C70.187 38.2577 70.4281 37.9169 70.9749 37.6471C71.5217 37.3774 72.3295 37.2009 73.2205 37.1563C74.1115 37.1118 75.0128 37.203 75.726 37.4098L80.6653 38.8422L92.3369 33.0838C92.6076 32.9503 92.9451 32.8383 93.3302 32.7541C93.7154 32.6699 94.1406 32.6153 94.5816 32.5932C95.0226 32.5712 95.4707 32.5822 95.9005 32.6257C96.3302 32.6692 96.7331 32.7442 97.0861 32.8466L97.0871 32.8469L97.0146 32.8849L97.089 32.8469C97.8013 33.0539 98.2672 33.3593 98.3847 33.696C98.5022 34.0328 98.2615 34.3735 97.7156 34.6432L83.9872 41.4133C83.6696 41.5693 83.2612 41.6955 82.7938 41.7821C82.3263 41.8688 81.8124 41.9136 81.2918 41.913L81.2888 41.9145Z" fill="#6C63FF"/>
<path d="M131.363 30.1026C130.633 30.1031 129.923 30.0138 129.339 29.8482L129.303 29.8379L121.677 27.6319C120.964 27.4251 120.497 27.1197 120.379 26.7827C120.262 26.4458 120.503 26.1049 121.05 25.8352C121.596 25.5655 122.404 25.3889 123.295 25.3444C124.186 25.2999 125.087 25.3911 125.801 25.5979L130.74 27.0302L142.412 21.2719C142.682 21.1384 143.02 21.0263 143.405 20.9422C143.79 20.858 144.215 20.8033 144.656 20.7813C145.097 20.7593 145.545 20.7703 145.975 20.8138C146.405 20.8572 146.808 20.9323 147.161 21.0346L147.162 21.0349L147.089 21.073L147.164 21.0349C147.876 21.2419 148.342 21.5473 148.459 21.8841C148.577 22.2209 148.336 22.5615 147.79 22.8313L134.062 29.6013C133.744 29.7573 133.336 29.8836 132.868 29.9702C132.401 30.0569 131.887 30.1017 131.366 30.1011L131.363 30.1026Z" fill="#6C63FF"/>
</g>
<defs>
<clipPath id="clip0">
<rect width="264" height="73" fill="white"/>
</clipPath>
</defs>
</svg>
